<svg width="21" height="20" viewBox="0 0 21 20" fill="none" xmlns="http://www.w3.org/2000/svg">
<g clip-path="url(#clip0_1147_417)">
<path d="M17.4582 6.63066C17.3659 6.41539 17.1541 6.27586 16.9198 6.27586H12.847L15.5611 0.847979C15.6519 0.666414 15.6422 0.45063 15.5355 0.277894C15.4287 0.105118 15.24 0 15.0369 0L6.87795 0.000468755C6.63838 0.000468755 6.42295 0.14633 6.33396 0.368793L2.56829 9.78222C2.49607 9.96273 2.5181 10.1673 2.62712 10.3283C2.73611 10.4893 2.91787 10.5858 3.11232 10.5858H7.89543L4.45117 19.1964C4.34679 19.4573 4.4423 19.7556 4.67894 19.9073C4.77609 19.9696 4.8859 20 4.99496 20C5.15122 20 5.30602 19.9376 5.42001 19.8176L17.3446 7.26532C17.5059 7.09551 17.5506 6.8459 17.4582 6.63066Z" fill="#4888FF" fill-opacity="0.5"/>
<path d="M17.4577 6.63066C17.3654 6.41539 17.1536 6.27586 16.9194 6.27586H12.8466L15.5607 0.847979C15.6515 0.666414 15.6418 0.45063 15.5351 0.277894C15.4283 0.105118 15.2396 0 15.0365 0L10.0156 0.000273441V14.9797L17.3441 7.26544C17.5055 7.09551 17.5502 6.8459 17.4577 6.63066Z" fill="#4888FF" fill-opacity="0.5"/>
</g>
<defs>
<clipPath id="clip0_1147_417">
<rect width="20" height="20" fill="white" transform="translate(0.015625)"/>
</clipPath>
</defs>
</svg>
