<svg width="20" height="20" viewBox="0 0 20 20" fill="none" xmlns="http://www.w3.org/2000/svg">
<g clip-path="url(#clip0_1147_408)">
<path d="M12.8975 15.5083C12.8975 14.4391 12.2242 13.8175 10.9334 12.7216C10.6417 12.4716 10.3267 12.2066 10.0017 11.9116C9.63087 12.2525 9.27837 12.5525 8.95504 12.8283C7.66671 13.9166 7.10254 14.4491 7.10254 15.5083C7.10254 16.2768 7.40781 17.0137 7.9512 17.5571C8.49458 18.1005 9.23157 18.4058 10 18.4058C10.7685 18.4058 11.5055 18.1005 12.0489 17.5571C12.5923 17.0137 12.8975 16.2768 12.8975 15.5083Z" fill="#4888FF" fill-opacity="0.5"/>
<path d="M13.6736 3.3625C12.6736 2.51333 11.6403 1.63583 10.5953 0.591667L10.0003 0L9.41694 0.5925C7.5386 2.4775 6.65027 5.3725 6.26527 7.10917C5.96984 6.65171 5.7506 6.14935 5.6161 5.62167L5.26027 4.2575L4.23277 5.22167C2.4336 6.91167 1.23277 8.5875 1.23277 11.2708C1.21547 13.2071 1.84573 15.0936 3.02343 16.6307C4.20112 18.1677 5.85868 19.2671 7.73277 19.7542C8.20367 19.8735 8.68319 19.9557 9.16694 20C8.118 19.8045 7.17035 19.2486 6.48787 18.4284C5.8054 17.6082 5.431 16.5753 5.42944 15.5083C5.42944 13.6333 6.56027 12.675 7.86944 11.5567C8.33694 11.1592 8.86944 10.7083 9.40694 10.1675L10.0003 9.5775L10.5903 10.1675C11.0703 10.6475 11.5503 11.0542 12.0144 11.4492C13.3278 12.5633 14.5678 13.6158 14.5678 15.5083C14.5664 16.5711 14.1951 17.6003 13.5174 18.419C12.8398 19.2378 11.8982 19.795 10.8544 19.995C13.0216 19.7847 15.0327 18.7748 16.4956 17.1622C17.9584 15.5495 18.7682 13.4498 18.7669 11.2725C18.7669 7.6875 16.4061 5.68333 13.6736 3.3625Z" fill="#4888FF" fill-opacity="0.5"/>
</g>
<defs>
<clipPath id="clip0_1147_408">
<rect width="20" height="20" fill="white"/>
</clipPath>
</defs>
</svg>
