<svg width="21" height="20" viewBox="0 0 21 20" fill="none" xmlns="http://www.w3.org/2000/svg">
<g clip-path="url(#clip0_1147_441)">
<path d="M11.7366 17.1407C11.898 17.1368 12.0358 17.0229 12.0698 16.8649C12.0813 16.8071 12.0973 16.7511 12.1119 16.6943C12.1206 16.6603 12.1273 16.6254 12.1374 16.5921C12.1444 16.5675 12.1542 16.5443 12.1617 16.5207C12.3526 15.9229 12.7147 15.3941 13.2031 15H11.0891C11.042 15.2185 11.0092 15.4353 10.9839 15.6519C10.9788 15.695 10.9741 15.7382 10.9703 15.7814C10.9492 15.9958 10.9346 16.21 10.9346 16.4285C10.9346 16.5582 10.9431 16.6832 10.9552 16.806C10.9663 16.9096 10.9823 17.0128 11.0028 17.1158C11.0045 17.1246 11.0055 17.1339 11.0074 17.1428H11.7216C11.728 17.1428 11.732 17.1407 11.7366 17.1407Z" fill="#4888FF" fill-opacity="0.5"/>
<path d="M12.046 2.03568C12.0567 1.95709 12.0674 1.88217 12.0852 1.8071C12.0924 1.76422 12.1068 1.7215 12.1174 1.67862C12.1353 1.61072 12.1531 1.54282 12.1782 1.47507C12.1914 1.4325 12.207 1.39084 12.2245 1.34995C12.2496 1.28571 12.2746 1.22147 12.3031 1.16074C12.321 1.12137 12.3423 1.07864 12.3602 1.03928C12.3924 0.978546 12.4281 0.917816 12.4603 0.860748C12.4853 0.821381 12.5067 0.785675 12.5282 0.749969C12.5674 0.68924 12.6138 0.62851 12.6567 0.571442C12.6782 0.539246 12.6996 0.510712 12.7246 0.478516C12.7827 0.406189 12.8447 0.337067 12.9103 0.271454C12.9246 0.257111 12.9353 0.24292 12.946 0.232086C13.0238 0.153656 13.106 0.0796509 13.1924 0.0106812L13.2031 0H3.07812C1.69736 0 0.578125 1.11923 0.578125 2.5C0.578125 3.88077 1.69736 5 3.07812 5H13.2031C12.447 4.39026 12.0073 3.47137 12.0067 2.5C12.0067 2.38174 12.0138 2.26379 12.0282 2.14645C12.0317 2.11075 12.0388 2.07138 12.046 2.03568ZM3.07812 1.42853C2.58908 1.42838 2.16168 1.75873 2.03885 2.23221C1.99948 2.38937 1.85818 2.49985 1.69598 2.5C1.58536 2.50015 1.48099 2.44919 1.41324 2.36176C1.34549 2.27448 1.32184 2.16064 1.34961 2.05353C1.55301 1.26526 2.26407 0.714417 3.07812 0.714264C3.27542 0.714264 3.43533 0.874176 3.43533 1.07147C3.43533 1.26862 3.27542 1.42853 3.07812 1.42853ZM5.57812 1.42853H4.50665C4.30951 1.42853 4.1496 1.26862 4.1496 1.07147C4.1496 0.874176 4.30951 0.714264 4.50665 0.714264H5.57812C5.77542 0.714264 5.93533 0.874176 5.93533 1.07147C5.93533 1.26862 5.77542 1.42853 5.57812 1.42853Z" fill="#4888FF" fill-opacity="0.5"/>
<path d="M17.5166 18.3757C17.7758 17.8333 17.9194 16.9829 17.1315 16.0065C16.6787 15.4002 15.9768 15.0305 15.2208 15C15.1394 15 15.0616 15.0136 14.982 15.0211C14.9141 15.0279 14.8448 15.0282 14.7783 15.0403C14.7284 15.0493 14.682 15.0671 14.6333 15.0793C13.8609 15.2673 13.2234 15.8107 12.9155 16.5436C12.9091 16.559 12.8994 16.5721 12.8933 16.5875C12.8669 16.6557 12.8515 16.7303 12.8308 16.8018C12.8102 16.8732 12.7836 16.9403 12.769 17.0139C12.6695 17.4901 12.2578 17.8369 11.7715 17.854C11.7555 17.854 11.7405 17.8583 11.7244 17.8583H11.2373C11.5426 18.5072 12.0384 19.0479 12.6587 19.4078L12.6666 19.4125C12.8199 19.5032 12.9791 19.5836 13.143 19.6532C13.1651 19.6625 13.1877 19.67 13.2098 19.6785C13.3394 19.7314 13.4733 19.7765 13.6097 19.8167C13.6561 19.8303 13.7022 19.845 13.7491 19.8572C13.9019 19.8967 14.057 19.928 14.2134 19.9507C14.2569 19.9571 14.3005 19.9614 14.344 19.9667C14.5164 19.9878 14.6899 19.9989 14.8637 20C15.9782 19.9835 16.9952 19.361 17.5166 18.3757Z" fill="#4888FF" fill-opacity="0.5"/>
<path d="M4.50665 20H12.2459C11.2689 19.4347 10.5743 18.4846 10.3317 17.3822C10.3174 17.3178 10.3032 17.2536 10.2925 17.1893C10.2781 17.1107 10.2638 17.0285 10.2531 16.9464C10.2318 16.7746 10.2211 16.6017 10.2209 16.4285C10.2209 16.2357 10.2318 16.0464 10.2459 15.8536C10.2496 15.7893 10.2566 15.7214 10.2638 15.6572C10.2781 15.5357 10.2925 15.4108 10.3138 15.2893C10.3245 15.2107 10.3352 15.1286 10.3495 15.0464C10.3817 14.8857 10.4174 14.7214 10.4603 14.5535C10.5211 14.3179 10.5888 14.0822 10.6746 13.8464C10.4817 14.0321 10.3245 14.2 10.2031 14.3358C10.1996 14.3393 10.1996 14.3428 10.196 14.3428C10.146 14.4 10.0996 14.4536 10.0602 14.5C10.0576 14.5053 10.054 14.5102 10.0496 14.5143C10.0139 14.5572 9.98166 14.5964 9.95663 14.6321L9.93878 14.65C9.91742 14.6822 9.89606 14.7072 9.88171 14.7285C9.87454 14.7357 9.87103 14.7429 9.86737 14.7464C9.85577 14.7624 9.84509 14.7792 9.83533 14.7964L9.82449 14.8071C9.82098 14.8143 9.81747 14.8178 9.81747 14.8215C9.81747 14.825 9.8103 14.8286 9.8103 14.8286C9.80664 14.8354 9.80176 14.8415 9.79596 14.8465C9.7897 14.8566 9.78253 14.8662 9.7746 14.875C9.76239 14.8889 9.74927 14.902 9.73523 14.9142C9.73172 14.9179 9.72455 14.9214 9.72104 14.9249C9.71356 14.9321 9.70517 14.9382 9.69601 14.9429C9.67801 14.9545 9.65894 14.9641 9.63879 14.9715C9.63528 14.9715 9.63528 14.975 9.63162 14.975C9.62811 14.975 9.6246 14.9786 9.62094 14.9786C9.61743 14.9786 9.61026 14.9821 9.60309 14.9857C9.57639 14.993 9.54877 14.9966 9.521 14.9965C9.51749 14.9965 9.51031 15 9.50665 15H9.50314C9.49597 15 9.49597 14.9965 9.4888 14.9965C9.45462 14.9974 9.42059 14.9915 9.38885 14.9786C9.38519 14.9786 9.38519 14.975 9.38168 14.975H9.37817C9.33759 14.9611 9.30096 14.9377 9.27106 14.9071C9.26083 14.8994 9.25229 14.8897 9.24603 14.8785C9.22421 14.8566 9.20605 14.8312 9.19247 14.8036C9.185 14.7899 9.17889 14.7755 9.17462 14.7607L9.16379 14.7285C9.15677 14.7214 9.15677 14.7107 9.15311 14.7C9.1496 14.6893 9.15677 14.6857 9.15311 14.6822C9.15677 14.6466 9.15784 14.6107 9.15677 14.575C9.32095 12.9959 9.8544 11.4777 10.7138 10.1428C12.1418 7.84271 14.3306 6.11526 16.8995 5.26077C17.4173 4.4313 17.7011 3.47748 17.7209 2.5C17.7209 1.11923 16.6017 0 15.2209 0C13.8403 0 12.7209 1.11923 12.7209 2.5C12.7209 3.88077 13.8403 5 15.2209 5C15.4182 5 15.5781 5.15991 15.5781 5.35721C15.5769 5.47562 15.5183 5.58609 15.421 5.65353C15.3621 5.69382 15.2923 5.71503 15.2209 5.71426H4.26022C3.90591 6.56723 3.47699 7.38708 2.97818 8.16422C2.76746 8.51791 2.54956 8.87863 2.33884 9.2572C1.30643 10.9897 0.709656 12.9469 0.599487 14.9608C0.585297 15.2036 0.578125 15.4572 0.578125 15.7143C0.578125 17.9178 2.48883 20 4.50665 20ZM3.08881 9.55719C3.11047 9.47052 3.16403 9.39529 3.2388 9.34647L3.9317 8.88214C4.27975 8.64975 4.73355 8.64975 5.08176 8.88214L5.3996 9.09286C5.50671 9.16794 5.64954 9.16794 5.75665 9.09286L6.07449 8.88214C6.4227 8.64975 6.8765 8.64975 7.22455 8.88214L7.54239 9.09286C7.64966 9.16794 7.79233 9.16794 7.8996 9.09286L8.21744 8.88214C8.56549 8.64975 9.01929 8.64975 9.36734 8.88214L10.0602 9.34647C10.2083 9.4426 10.2618 9.63379 10.1852 9.79279C10.1783 9.80911 10.17 9.82452 10.1603 9.83932C10.0946 9.93912 9.98334 9.99939 9.86386 10C9.79367 10.0008 9.72485 9.97955 9.66748 9.93927L8.97092 9.47861C8.8638 9.40353 8.72113 9.40353 8.61386 9.47861L8.29602 9.68933C7.94781 9.92172 7.49417 9.92172 7.14597 9.68933L6.82812 9.47861C6.72086 9.40353 6.57819 9.40353 6.47092 9.47861L6.15308 9.68933C5.80502 9.92172 5.35123 9.92172 5.00317 9.68933L4.68533 9.47861C4.57806 9.40353 4.43539 9.40353 4.32812 9.47861L3.63171 9.93927C3.55328 9.99191 3.457 10.011 3.36438 9.99222C3.27176 9.97345 3.19058 9.91837 3.13885 9.83932C3.08423 9.75601 3.06607 9.65408 3.08881 9.55719ZM2.16748 11.8465L2.86023 11.3821C3.20844 11.1497 3.66208 11.1497 4.01028 11.3821L4.32812 11.5929C4.43539 11.6679 4.57806 11.6679 4.68533 11.5929L5.00317 11.3821C5.35123 11.1497 5.80502 11.1497 6.15308 11.3821L6.47092 11.5929C6.57819 11.6679 6.72086 11.6679 6.82812 11.5929L7.14597 11.3821C7.49417 11.1497 7.94781 11.1497 8.29602 11.3821L8.98877 11.8465C9.11877 11.9337 9.17676 12.0956 9.13174 12.2456C9.08658 12.3956 8.9491 12.4988 8.79239 12.5C8.7222 12.5008 8.65353 12.4796 8.59601 12.4393L7.8996 11.9786C7.79233 11.9035 7.64966 11.9035 7.54239 11.9786L7.22455 12.1893C6.8765 12.4217 6.4227 12.4217 6.07449 12.1893L5.75665 11.9786C5.64954 11.9035 5.50671 11.9035 5.3996 11.9786L5.08176 12.1893C4.73355 12.4217 4.27975 12.4217 3.9317 12.1893L3.61386 11.9786C3.50659 11.9035 3.36392 11.9035 3.25665 11.9786L2.56024 12.4393C2.45465 12.5243 2.31015 12.5423 2.18701 12.4857C2.06387 12.429 1.98346 12.3076 1.97919 12.1721C1.97507 12.0366 2.048 11.9106 2.16748 11.8465ZM1.45306 14.7035L2.14597 14.2393C2.49417 14.007 2.94781 14.007 3.29602 14.2393L3.61386 14.4501C3.72113 14.525 3.8638 14.525 3.97092 14.4501L4.28891 14.2393C4.63696 14.007 5.09076 14.007 5.43881 14.2393L5.75665 14.4501C5.86392 14.525 6.00659 14.525 6.11386 14.4501L6.4317 14.2393C6.77975 14.007 7.23355 14.007 7.58176 14.2393L8.27451 14.7035C8.29953 14.7197 8.32227 14.7389 8.34241 14.7607C8.43686 14.8654 8.46097 15.0159 8.40375 15.1447C8.34668 15.2736 8.21912 15.3568 8.07812 15.3572C8.00793 15.358 7.93927 15.3368 7.88174 15.2965L7.18533 14.8357C7.07806 14.7607 6.93539 14.7607 6.82812 14.8357L6.51028 15.0464C6.16208 15.2788 5.70844 15.2788 5.36023 15.0464L5.04239 14.8357C4.93512 14.7607 4.79245 14.7607 4.68533 14.8357L4.36734 15.0464C4.01929 15.2788 3.56549 15.2788 3.21744 15.0464L2.8996 14.8357C2.79233 14.7607 2.64966 14.7607 2.54239 14.8357L1.84598 15.2965C1.76755 15.3493 1.67126 15.3685 1.57864 15.3496C1.48602 15.3308 1.40469 15.2756 1.35312 15.1964C1.31436 15.1382 1.2933 15.0699 1.29239 15C1.293 14.8805 1.35327 14.7693 1.45306 14.7035Z" fill="#4888FF" fill-opacity="0.5"/>
<path d="M10.1143 12.7357C11.4036 10.7571 14.2036 7.57858 19.7679 5.40359C13.7678 5.89996 11.15 10.1785 10.1143 12.7357Z" fill="#4888FF" fill-opacity="0.5"/>
<path d="M20.4956 5.89645C14.292 8.18924 11.5134 11.7357 10.4277 13.5786C11.772 12.3311 13.2613 11.2495 14.8635 10.3572C16.9637 9.17572 18.8645 7.67029 20.4956 5.89645Z" fill="#4888FF" fill-opacity="0.5"/>
</g>
<defs>
<clipPath id="clip0_1147_441">
<rect width="20" height="20" fill="white" transform="translate(0.539062)"/>
</clipPath>
</defs>
</svg>
