<svg width="24" height="24" viewBox="0 0 24 24" fill="none" xmlns="http://www.w3.org/2000/svg">
<g clip-path="url(#clip0_1147_477)">
<path d="M9.36193 11.1722H7.70676C7.47845 11.1722 7.29297 11.3577 7.29297 11.586V11.9998H9.77573V11.586C9.77573 11.3581 9.59045 11.1722 9.36193 11.1722Z" fill="#343A3F"/>
<path d="M13.9136 7.44815H13.086V10.3447C13.086 11.6493 12.5312 12.8241 11.6484 13.6549H13.9136V7.44815Z" fill="#343A3F"/>
<path d="M6.29391 18.3759L7.78846 17.379L5.98478 16.1767L5.69141 16.266L6.29391 18.3759Z" fill="#343A3F"/>
<path d="M12.6241 14.4825H11.4316V15.4119L12.0685 15.5939L12.6241 14.4825Z" fill="#343A3F"/>
<path d="M12.2588 7.44815H4.81055V10.3447C4.81055 12.3982 6.48107 14.0687 8.53468 14.0687C10.5883 14.0687 12.2588 12.3982 12.2588 10.3447V7.44815ZM6.05193 8.68951C6.05193 8.4612 6.23741 8.27572 6.46572 8.27572C6.69423 8.27572 6.87951 8.4612 6.87951 8.68951C6.87951 8.91782 6.69423 9.10329 6.46572 9.10329C6.23741 9.10329 6.05193 8.91842 6.05193 8.68951ZM10.6037 12.8274H6.46572V11.586C6.46572 10.9017 7.02276 10.3447 7.7071 10.3447H9.36227C10.0466 10.3447 10.6037 10.9017 10.6037 11.586V12.8274ZM10.6037 9.10329C10.3753 9.10329 10.1899 8.91782 10.1899 8.68951C10.1899 8.4612 10.3753 8.27572 10.6037 8.27572C10.8322 8.27572 11.0174 8.4612 11.0174 8.68951C11.0174 8.91842 10.8322 9.10329 10.6037 9.10329Z" fill="#343A3F"/>
<path d="M15.527 0.413788H15.1551C14.1557 0.413788 13.3199 1.12599 13.1279 2.06893H13.4999C14.4992 2.06893 15.3351 1.35713 15.527 0.413788Z" fill="#343A3F"/>
<path d="M14.7419 4.55164H14.3578L2.32812 5.75401V6.62057H14.7419V4.55164Z" fill="#343A3F"/>
<path d="M11.0173 3.31029C11.0173 2.62596 11.5744 2.06893 12.2587 2.06893C12.2698 2.06893 12.2803 2.07176 12.2914 2.07216C12.2922 2.06529 12.2934 2.05863 12.2947 2.05155C11.5519 0.785749 10.1996 0 8.72488 0C7.02041 0 5.50929 1.02295 4.87628 2.60556C4.56755 3.37696 4.16608 4.10674 3.68945 4.78622L11.2523 4.03158C11.1058 3.82792 11.0173 3.58002 11.0173 3.31029Z" fill="#343A3F"/>
<path d="M12.6723 3.31029C12.6723 3.5388 12.487 3.72407 12.2585 3.72407C12.03 3.72407 11.8447 3.5388 11.8447 3.31029C11.8447 3.08177 12.03 2.8965 12.2585 2.8965C12.487 2.8965 12.6723 3.08177 12.6723 3.31029Z" fill="#343A3F"/>
<path d="M9.28125 17.379L10.7758 18.3759L11.3807 16.2581L11.0882 16.1744L9.28125 17.379Z" fill="#343A3F"/>
<path d="M13.914 14.4825H13.5491L12.8779 15.8253L13.5204 16.0085L13.6215 15.6378L16.0711 16.2502L15.9238 16.8381C16.2796 17.0723 16.5764 17.375 16.794 17.7277L17.98 15.3555L14.7097 13.8689C14.6145 14.2215 14.2955 14.4825 13.914 14.4825Z" fill="#343A3F"/>
<path d="M15.6943 17.7005C15.3011 19.1218 14.7014 20.458 13.9141 21.6783V24H16.3968V19.2518C16.3968 18.6452 16.1354 18.087 15.6943 17.7005Z" fill="#343A3F"/>
<path d="M13.0864 23.9996V22.8298C12.7641 23.2353 12.4251 23.6288 12.0586 24H13.0864V23.9996Z" fill="#343A3F"/>
<path d="M15.067 16.8527L14.2063 16.6375L14.1578 16.8155C13.4262 19.4976 11.947 21.8983 9.88042 23.7583L9.6123 23.9996H10.8529C12.895 22.1743 14.3275 19.8108 14.9928 17.1497L15.067 16.8527Z" fill="#343A3F"/>
<path d="M2.14052 17.3439C1.26283 17.6104 0.672852 18.406 0.672852 19.3239V24H3.15561V20.8491C3.15561 19.6068 2.95154 18.389 2.54906 17.2206L2.14052 17.3439Z" fill="#343A3F"/>
<path d="M13.2947 16.805L12.1757 16.4852L11.2593 19.6928L8.94824 18.1524V23.4844L9.32688 23.1435C11.2217 21.4383 12.5863 19.2489 13.2947 16.805Z" fill="#343A3F"/>
<path d="M4.89864 16.5064L3.33984 16.9798C3.76576 18.226 3.98256 19.5245 3.98256 20.8485V23.9996H8.12049V18.1524L5.80947 19.6928L4.89864 16.5064Z" fill="#343A3F"/>
<path d="M3.98286 10.3447V7.44815H3.15527V13.6549H5.42043C4.53768 12.8245 3.98286 11.6493 3.98286 10.3447Z" fill="#343A3F"/>
<path d="M10.6038 14.394C9.98225 14.713 9.27994 14.8963 8.53479 14.8963C7.78963 14.8963 7.08732 14.7126 6.46582 14.394V15.5024L8.53479 16.8816L10.6038 15.5024V14.394Z" fill="#343A3F"/>
<path d="M21.3631 8.62121L20.4814 6.83817L18.9743 9.44757L19.4291 11.1437L18.1348 13.3852L15.5949 12.2134L17.0829 9.63588L18.7785 9.18148L20.2852 6.57168L18.3003 6.69998L17.4189 4.91653L15.9119 7.52634L16.3663 9.22169L14.84 11.8648L14.7412 11.819V12.9747L18.6872 14.7684L19.146 13.8519L18.8894 13.7335L20.1462 11.5575L21.8416 11.1027L23.3484 8.49332L21.3631 8.62121Z" fill="#343A3F"/>
</g>
<defs>
<clipPath id="clip0_1147_477">
<rect width="24" height="24" fill="white"/>
</clipPath>
</defs>
</svg>
