<svg width="24" height="24" viewBox="0 0 24 24" fill="none" xmlns="http://www.w3.org/2000/svg">
<path d="M17.0397 2.8001C16.0079 2.81615 14.9986 3.10418 14.1137 3.6351C13.2289 4.16602 12.4998 4.92103 12 5.82389C11.5003 4.92103 10.7712 4.16602 9.88635 3.6351C9.00149 3.10418 7.99219 2.81615 6.96039 2.8001C5.31558 2.87157 3.7659 3.5911 2.64991 4.80152C1.53393 6.01193 0.942356 7.61483 1.00444 9.26002C1.00444 13.4264 5.38985 17.9768 9.06788 21.062C9.88909 21.7521 10.9274 22.1304 12 22.1304C13.0727 22.1304 14.111 21.7521 14.9322 21.062C18.6102 17.9768 22.9956 13.4264 22.9956 9.26002C23.0577 7.61483 22.4662 6.01193 21.3502 4.80152C20.2342 3.5911 18.6845 2.87157 17.0397 2.8001Z" fill="#343A3F"/>
</svg>
